<?xml version="1.0" standalone="no"?>
<!DOCTYPE svg PUBLIC "-//W3C//DTD SVG 20010904//EN"
 "http://www.w3.org/TR/2001/REC-SVG-20010904/DTD/svg10.dtd">
<svg version="1.0" xmlns="http://www.w3.org/2000/svg"
 width="440.000000pt" height="247.000000pt" viewBox="0 0 440.000000 247.000000"
 preserveAspectRatio="xMidYMid meet">

<g transform="translate(0.000000,247.000000) scale(0.100000,-0.100000)"
fill="#000000" stroke="none">
<path d="M1920 2061 c-196 -62 -345 -217 -394 -407 -19 -72 -20 -221 -3 -277
l12 -38 26 88 c15 48 32 121 38 162 16 104 60 191 135 265 99 99 211 146 346
146 136 0 248 -48 347 -146 188 -190 189 -493 2 -684 -27 -27 -49 -51 -49 -54
0 -3 19 -10 42 -17 l43 -11 47 52 c26 28 63 84 82 123 150 316 -6 681 -337
792 -95 31 -249 34 -337 6z"/>
<path d="M2078 1808 c-83 -8 -124 -21 -210 -65 -129 -67 -242 -209 -281 -353
-30 -110 -29 -123 12 -187 61 -94 66 -94 68 2 4 225 115 411 301 509 41 21 75
36 78 34 2 -3 -18 -19 -45 -36 -107 -70 -197 -197 -222 -313 -18 -82 -6 -250
23 -334 l24 -70 64 -24 c55 -21 84 -25 185 -25 136 -1 209 18 306 79 l54 34
-30 11 c-91 33 -179 112 -217 197 -32 69 -32 218 -1 285 30 67 104 141 166
169 52 24 52 24 20 27 -54 5 -154 -26 -213 -66 -110 -75 -165 -182 -164 -317
0 -64 6 -92 27 -140 l27 -60 -30 35 c-51 59 -73 132 -68 230 6 106 32 165 105
237 69 68 141 96 246 97 42 0 77 2 77 3 0 1 -24 9 -52 19 -67 22 -164 31 -250
22z"/>
<path d="M1390 756 c0 -21 5 -26 26 -26 21 0 25 4 22 23 -2 14 -11 23 -25 25
-19 3 -23 -1 -23 -22z"/>
<path d="M2857 773 c-4 -3 -7 -15 -7 -25 0 -13 7 -18 25 -18 20 0 25 5 25 25
0 18 -5 25 -18 25 -10 0 -22 -3 -25 -7z"/>
<path d="M3230 753 c-12 -16 -17 -29 -11 -31 13 -4 71 36 71 49 0 20 -40 8
-60 -18z"/>
<path d="M830 750 c0 -16 7 -20 35 -20 l35 0 0 -130 0 -130 25 0 25 0 0 130 0
130 35 0 c28 0 35 4 35 20 0 19 -7 20 -95 20 -88 0 -95 -1 -95 -20z"/>
<path d="M2150 620 c0 -142 1 -150 20 -150 18 0 20 8 22 98 l3 97 39 -98 c37
-90 42 -98 65 -95 21 3 30 17 61 90 20 48 39 91 43 94 4 4 4 -36 0 -90 l-6
-96 32 0 32 0 -3 148 -3 147 -25 0 c-21 0 -30 -13 -74 -113 -28 -61 -53 -109
-57 -105 -3 5 -23 51 -44 103 -46 113 -51 120 -81 120 l-24 0 0 -150z"/>
<path d="M1713 729 c-14 -5 -23 -17 -23 -29 0 -11 -7 -20 -15 -20 -8 0 -15 -5
-15 -10 0 -6 7 -13 15 -16 11 -5 15 -23 15 -73 0 -76 17 -111 56 -111 27 0 31
14 9 36 -10 11 -15 36 -15 80 0 57 2 64 20 64 26 0 26 26 1 33 -11 3 -21 15
-23 30 -3 21 -6 23 -25 16z"/>
<path d="M1312 674 c-12 -8 -22 -10 -22 -5 0 6 -9 11 -20 11 -19 0 -20 -7 -20
-105 0 -105 0 -105 25 -105 23 0 24 2 27 82 3 78 4 82 28 88 16 4 25 13 25 25
0 25 -16 28 -43 9z"/>
<path d="M1502 670 c-42 -39 -22 -99 38 -114 39 -9 54 -22 46 -41 -5 -13 -16
-16 -53 -14 -54 4 -70 -15 -26 -32 61 -23 133 12 133 66 0 27 -24 49 -72 65
-27 8 -38 17 -38 32 0 17 6 19 47 17 53 -4 70 15 28 31 -41 16 -79 12 -103
-10z"/>
<path d="M1843 680 c-38 -15 -18 -36 35 -36 35 1 47 -3 50 -15 2 -12 -8 -18
-39 -23 -66 -11 -79 -21 -79 -66 0 -64 57 -98 112 -67 15 9 28 12 28 7 0 -6 9
-10 20 -10 18 0 20 7 20 58 0 75 -15 128 -43 147 -24 17 -70 19 -104 5z m97
-119 c0 -5 -5 -22 -10 -36 -8 -21 -16 -26 -37 -23 -28 3 -40 25 -29 54 6 16
76 20 76 5z"/>
<path d="M2533 680 c-38 -15 -18 -36 35 -36 35 1 47 -3 50 -15 2 -13 -8 -18
-42 -23 -56 -9 -76 -27 -76 -71 0 -59 60 -92 112 -62 15 9 28 12 28 7 0 -6 9
-10 20 -10 18 0 20 7 20 65 0 128 -55 182 -147 145z m97 -119 c0 -5 -5 -22
-10 -36 -8 -21 -16 -26 -37 -23 -28 3 -40 25 -29 54 6 16 76 20 76 5z"/>
<path d="M2780 681 c-8 -6 -27 -7 -42 -4 l-28 6 0 -107 0 -106 25 0 c24 0 25
3 25 59 0 75 13 111 40 111 15 0 20 7 20 25 0 26 -14 31 -40 16z"/>
<path d="M2990 677 c-13 -7 -31 -24 -38 -37 -18 -34 -10 -124 13 -150 23 -25
79 -36 112 -21 37 17 23 36 -25 33 -47 -4 -62 14 -62 73 0 59 15 77 60 74 47
-4 62 8 36 27 -24 17 -63 18 -96 1z"/>
<path d="M3174 676 c-26 -19 -11 -31 36 -27 30 2 41 -2 49 -17 10 -18 6 -20
-37 -27 -26 -4 -55 -14 -64 -22 -26 -23 -22 -69 7 -98 28 -29 61 -32 93 -9 12
8 22 10 22 5 0 -6 9 -11 20 -11 18 0 20 7 20 81 0 76 -2 82 -29 110 -33 33
-83 39 -117 15z m94 -132 c-6 -51 -67 -58 -76 -9 -5 22 14 35 51 35 25 0 28
-3 25 -26z"/>
<path d="M1030 597 c0 -94 13 -122 60 -132 21 -5 39 -2 55 9 14 9 25 12 25 6
0 -5 9 -10 20 -10 19 0 20 7 20 105 l0 105 -25 0 c-24 0 -25 -2 -25 -71 0 -81
-11 -109 -44 -109 -31 0 -36 16 -36 106 0 72 -1 74 -25 74 -25 0 -25 -1 -25
-83z"/>
<path d="M1390 575 l0 -105 25 0 25 0 0 105 0 105 -25 0 -25 0 0 -105z"/>
<path d="M2850 575 l0 -105 25 0 25 0 0 105 0 105 -25 0 -25 0 0 -105z"/>
</g>
</svg>
